inDegrees=no
num_controls=7
num_derivatives=13
num_iterations=178
num_multipliers=7
num_parameters=0
num_slacks=7
num_states=26
objective=5.255409
objective_accelerations=0.771017
objective_balance=0.038403
objective_effort=0.249636
objective_height=4.144100
objective_ligament=0.052253
solver_duration=1956.914313
status=Solve_Succeeded
success=true
DataType=double
version=3
OpenSimVersion=4.4-2022-07-23-0e9fedc
endheader
time	/jointset/ground_pelvis/pelvis_tilt/value	/jointset/ground_pelvis/pelvis_tx/value	/jointset/ground_pelvis/pelvis_ty/value	/jointset/hip_l/hip_flexion_l/value	/jointset/hip_l/hip_adduction_l/value	/jointset/hip_l/hip_rotation_l/value	/jointset/back/lumbar_extension/value	/jointset/patellofemoral_l/patellar_flexion_l/value	/jointset/knee_l/knee_flexion_l/value	/jointset/knee_l/knee_adduction_l/value	/jointset/knee_l/knee_rotation_l/value	/jointset/ankle_l/ankle_angle_l/value	/jointset/subtalar_l/subtalar_angle_l/value	/jointset/ground_pelvis/pelvis_tilt/speed	/jointset/ground_pelvis/pelvis_tx/speed	/jointset/ground_pelvis/pelvis_ty/speed	/jointset/hip_l/hip_flexion_l/speed	/jointset/hip_l/hip_adduction_l/speed	/jointset/hip_l/hip_rotation_l/speed	/jointset/back/lumbar_extension/speed	/jointset/patellofemoral_l/patellar_flexion_l/speed	/jointset/knee_l/knee_flexion_l/speed	/jointset/knee_l/knee_adduction_l/speed	/jointset/knee_l/knee_rotation_l/speed	/jointset/ankle_l/ankle_angle_l/speed	/jointset/subtalar_l/subtalar_angle_l/speed	/forceset/tau_hip_flexion_l	/forceset/tau_hip_adduction_l	/forceset/tau_hip_rotation_l	/forceset/tau_knee_flexion_l	/forceset/tau_ankle_angle_l	/forceset/tau_subtalar_angle_l	/forceset/tau_lumbar_extension	lambda_cid13_p0	lambda_cid13_p1	lambda_cid13_p2	lambda_cid13_p3	lambda_cid13_p4	lambda_cid13_p5	lambda_cid14_p0	/jointset/ground_pelvis/pelvis_tilt/accel	/jointset/ground_pelvis/pelvis_tx/accel	/jointset/ground_pelvis/pelvis_ty/accel	/jointset/hip_l/hip_flexion_l/accel	/jointset/hip_l/hip_adduction_l/accel	/jointset/hip_l/hip_rotation_l/accel	/jointset/back/lumbar_extension/accel	/jointset/patellofemoral_l/patellar_flexion_l/accel	/jointset/knee_l/knee_flexion_l/accel	/jointset/knee_l/knee_adduction_l/accel	/jointset/knee_l/knee_rotation_l/accel	/jointset/ankle_l/ankle_angle_l/accel	/jointset/subtalar_l/subtalar_angle_l/accel	gamma_cid13_p0	gamma_cid13_p1	gamma_cid13_p2	gamma_cid13_p3	gamma_cid13_p4	gamma_cid13_p5	gamma_cid14_p0
1.5	-0.6135324625582113	-0.0478517637616288	0.777081586368373	1.293191099322009	-0.359626101332677	-0.09423460844967566	-0.3504514604123048	0.599458440668525	0.5994584406685195	-0.0831681451383685	-0.1734313820118484	0.01333692966244192	0.06589618184792848	1.218861359001949	0.5085600358922984	0.5202417517391053	-3.042422038077506	-0.01486957494762942	-0.5426195748397592	0.5910851469010713	-1.620343405288271	-1.620343405288288	-0.2230604843230934	0.0210252126189962	0.08212667854146199	0.01483354260274073	-0.2229966376957575	0.00756755000226601	0.01467483405216142	-0.05677716559765614	0.02349525799130876	0.01432678245069603	0.1769979238970836	-15.98432498183815	-6.114011337752175	3.767076125027609	-7.346032050485875	-429.8828086589571	-65.18397214349621	-19.13180578618788	0.8891563871244238	0.9552236991658808	-0.6082739167020937	-1.966804040320739	0.3478895212858923	-0.2242623345012655	2.028583761207434	-0.7008696194251245	-0.7008696194251245	-0.2189358650290877	0.3149539923166353	0.3554240308452273	0.4593906693127097	1.170809726873182e-07	1.698876525267565e-06	-8.219755223200862e-07	3.084913688563758e-07	5.73538437428689e-07	-2.985581569508667e-07	4.279757899600118e-07
1.51	-0.6012998702041075	-0.04271901239085827	0.7822525023930368	1.262670699981096	-0.3597592998381012	-0.09967312259566584	-0.3444416606500141	0.5832217233986788	0.5832217233986133	-0.08541246337476593	-0.1732082288009456	0.01417538092577838	0.06606540488689586	1.227463889392074	0.5179097469511413	0.513820916065705	-3.061218820265217	-0.01176204752940526	-0.5450089774724938	0.6107790990096367	-1.626782172033465	-1.626782172033484	-0.2257792441427972	0.0236310918944956	0.08555432646154085	0.01901690549495727	-0.2153809504226074	0.008637771523638623	0.01515815913583627	-0.05525097874980404	0.02059837607225862	0.01122133705285231	0.1714190113556723	-16.85792043474571	-4.847523972380317	3.83378121387518	-6.368747406453164	-425.3606579870981	-63.15879378373211	-19.70320581511075	0.8168634447168479	0.9128370055562719	-0.6769491712527451	-1.770207772582036	0.2931761406603541	-0.234800087916455	1.925444953535778	-0.5827836424508633	-0.5827836424511278	-0.2944490647207375	0.2370220525200269	0.335095830627123	0.3984962472455836	1.049246029423944e-07	1.755847741650385e-06	-7.953772854163431e-07	3.22333193067926e-07	5.903119117256391e-07	-2.531017829574314e-07	4.258086306885829e-07
1.52	-0.5889870401301489	-0.03749516547023693	0.7873556179052482	1.231975514325402	-0.3598612247116359	-0.1051332349400528	-0.3382377925630621	0.5669271377732344	0.5669271377732236	-0.08768318981387198	-0.1729582933659742	0.0150478407999219	0.06627659898439869	1.234908902972629	0.5267791458624626	0.5066816492486386	-3.077379301036336	-0.008614848568368517	-0.5469392145155143	0.6298988118323952	-1.631917076394031	-1.631917076394051	-0.2283421249337065	0.02638165746414247	0.08892840070313444	0.02322775430995101	-0.2077652631493516	0.009707993044923077	0.01564148422051255	-0.05372479190203862	0.01770149415314974	0.008115891654891287	0.1658400988144193	-17.73418563171735	-3.580436029861411	3.900239249640284	-5.386180812067567	-420.877053809077	-61.20023471042447	-20.25532282533056	0.6576530252104049	0.8591612696615657	-0.751960145435318	-1.439543757002352	0.3558238298483513	-0.1324292165585837	1.913735904046007	-0.4400971424995228	-0.440097142499524	-0.1877600592701738	0.3438912511460842	0.3447092951482341	0.4648878538681714	9.142347094620041e-08	1.887816209953209e-06	-7.358123229556484e-07	3.462064531972502e-07	6.061500226804736e-07	-2.136710568589075e-07	4.30862078657352e-07
1.53	-0.5766055620353614	-0.03218501221153545	0.7923838593504892	1.201131737936598	-0.3599315485783979	-0.1106111595081522	-0.3318458361539929	0.5505877150069144	0.5505877150068365	-0.08997856340190603	-0.1726808443184015	0.01595386694734305	0.06653000449663868	1.241181832010997	0.5351709241234881	0.4988553919405221	-3.090930385325989	-0.005445942699391013	-0.5485654694399622	0.6483832395420299	-1.635743396835216	-1.635743396835197	-0.2307100090427094	0.02913467332511244	0.09227957643365799	0.02745858753148341	-0.2000006447121535	0.00731456878524104	0.01609296361398586	-0.05280508631815771	0.01496253777883522	0.007797879361392739	0.1601526188314381	-18.41432268313451	-3.493983383832712	4.081490251972183	-4.682967060281479	-416.6285965895611	-61.82643215282096	-20.78510106117276	0.5814228255475236	0.8171786862415422	-0.8145199140711291	-1.245998887114992	0.2977065310463506	-0.165341078342551	1.799411638497312	-0.3203775686581442	-0.3203775686522648	-0.2575203720524603	0.2447719128680513	0.3307931080361623	0.4026883676901807	7.649352905803186e-08	2.099469258421034e-06	-6.412202145906934e-07	3.807381139892092e-07	6.2099431008431e-07	-1.80642581648727e-07	4.435874218188315e-07
